<svg xmlns="http://www.w3.org/2000/svg" xmlns:xlink="http://www.w3.org/1999/xlink" viewBox="0 0 79.31 147.32"><defs><style>.cls-1{fill:none;}.cls-2{clip-path:url(#clip-path);}.cls-3{fill:#e9fcff;}.cls-4{fill:#aee0ff;}.cls-5{opacity:0.75;}.cls-6{clip-path:url(#clip-path-2);}.cls-7{fill:#6cd5ff;}.cls-8{fill:#6950dd;}.cls-9{fill:#f794bd;}.cls-10{clip-path:url(#clip-path-3);}.cls-11{fill:#fff;}.cls-12{fill:#ff73e1;}</style><clipPath id="clip-path"><ellipse class="cls-1" cx="33.42" cy="132.36" rx="25.92" ry="14.97"/></clipPath><clipPath id="clip-path-2"><path class="cls-1" d="M59.6,78.85a21.49,21.49,0,0,1,.08,10.39A27.12,27.12,0,0,1,6.3,82.46c0-5.21,4-12.09,3.85-22.13a50,50,0,0,0-1-9.13c-.78-3.9,49.27-3.89,48.48,0a47,47,0,0,0-1,9.15C56.7,66,58.47,74.2,59.6,78.85Z"/></clipPath><clipPath id="clip-path-3"><path class="cls-1" d="M67.74,13.83c10,8.9,15.27,26.34,7.57,35.4-8.11,9.55-27.53,6.23-38.11-3.5-9.29-8.54-14.94-24.95-7.79-34.08C37.12,1.8,56.83,4.15,67.74,13.83Z"/></clipPath></defs><title>cocktail alt</title><g id="Calque_2" data-name="Calque 2"><g id="Calque_1-2" data-name="Calque 1"><g class="cls-2"><ellipse class="cls-3" cx="33.42" cy="132.36" rx="25.92" ry="14.97"/><ellipse class="cls-4" cx="53.25" cy="131.21" rx="25.92" ry="14.97"/></g><path class="cls-4" d="M65.14,78a25.83,25.83,0,0,1,.1,12.57A32.84,32.84,0,0,1,.61,82.32C.61,76,5.44,67.68,5.28,55.53A61.21,61.21,0,0,0,2,36.71l62.94,0a59.22,59.22,0,0,0-3.29,18.84C61.63,62.44,63.77,72.33,65.14,78Z"/><path class="cls-4" d="M26.94,127l-3.86-24.23a10.49,10.49,0,0,1,20.72-3.3,11.06,11.06,0,0,1,0,3.3L39.94,127a6.58,6.58,0,0,1-13,0Z"/><ellipse class="cls-4" cx="33.42" cy="30.13" rx="33.42" ry="19.3"/><g class="cls-5"><g class="cls-6"><path class="cls-7" d="M59.6,78.85a21.49,21.49,0,0,1,.08,10.39A27.12,27.12,0,0,1,6.3,82.46c0-5.21,4-12.09,3.85-22.13a50,50,0,0,0-1-9.13c-.78-3.9,49.27-3.89,48.48,0a47,47,0,0,0-1,9.15C56.7,66,58.47,74.2,59.6,78.85Z"/><path class="cls-8" d="M44.59,78.85a21.37,21.37,0,0,1,.08,10.39,27.13,27.13,0,0,1-22.11,20c-1.36.21,14.39,3.26,13,3.26-6.12,0,13.31-2.59,23-15.94,4-5.45,2.6-24.76,2.6-24.76s-3-18.19-2.6-23.37c.28-4.08-30.56-4.2-30.65-4.68-.41-2-20.78,4.43-8,4.51,11.78.07,23.08,1,22.71,2.89a46.19,46.19,0,0,0-1,9.15C41.69,66,43.46,74.2,44.59,78.85Z"/></g></g><ellipse class="cls-3" cx="33.42" cy="49.51" rx="24.41" ry="14.1"/><path class="cls-9" d="M33.83,58.56a1.38,1.38,0,0,1-1.13-2.18L56.64,22.26a1.39,1.39,0,0,1,2.27,1.59L35,58A1.37,1.37,0,0,1,33.83,58.56Z"/><path class="cls-3" d="M57.05,16.49C44,9,22.84,9,9.79,16.49s-13,19.75,0,27.28,34.21,7.54,47.26,0S70.11,24,57.05,16.49ZM53.26,41.34c-11,6.2-28.72,6.2-39.68,0s-10.95-16.23,0-22.42,28.72-6.2,39.68,0S64.22,35.15,53.26,41.34Z"/><g class="cls-10"><path class="cls-11" d="M67.74,13.83c10,8.9,15.27,26.34,7.57,35.4-8.11,9.55-27.53,6.23-38.11-3.5-9.29-8.54-14.94-24.95-7.79-34.08C37.12,1.8,56.83,4.15,67.74,13.83Z"/><polygon class="cls-12" points="57.46 23.48 57.46 54.95 45.88 53.01 33.81 43.57 28.81 34.88 57.46 23.48"/><polygon class="cls-11" points="57.46 23.48 20.95 37.98 21.26 10.43 57.46 23.48"/><polygon class="cls-12" points="57.46 23.48 78.86 41.47 79.31 38.7 78.5 27.07 57.46 23.48"/><polygon class="cls-12" points="57.46 23.48 44.04 5.03 38 5.86 31.79 8.61 28.04 12.9 57.46 23.48"/><polygon class="cls-11" points="57.46 23.48 76.92 26.77 74.06 20.41 70.31 15.95 57.46 23.48"/><polygon class="cls-12" points="70.31 15.95 57.46 23.48 59.83 8.36 65.54 11.49 70.31 15.95"/><polygon class="cls-11" points="61.01 0 57.46 23.48 40.46 0.1 61.01 0"/></g><path class="cls-1" d="M67.74,13.83c10,8.9,15.27,26.34,7.57,35.4-8.11,9.55-27.53,6.23-38.11-3.5-9.29-8.54-14.94-24.95-7.79-34.08C37.12,1.8,56.83,4.15,67.74,13.83Z"/><path class="cls-12" d="M58.91,25.08c2.07-.72,2.68-4.8,1.43-5.79s-5.23.78-5.35,2.9C54.9,23.87,57.22,25.66,58.91,25.08Z"/></g></g></svg>