<svg xmlns="http://www.w3.org/2000/svg" viewBox="0 0 54.13 124"><defs><style>.cls-1{fill:#f794bd;}.cls-2{fill:#fca1ff;}.cls-3{fill:none;}.cls-4{fill:#fce4be;}.cls-5{fill:#fff080;}</style></defs><title>ice cream</title><g id="Calque_2" data-name="Calque 2"><g id="Calque_1-2" data-name="Calque 1"><path class="cls-1" d="M24.61,77.8l-4.08,2.32,4.08,23.42v8.82a11.71,11.71,0,0,0,2.79,7.24l.72,4.1,4.07-2.33v0c1-.56,1.6-1.83,1.6-3.68V83.1Z"/><path class="cls-2" d="M34.31,4.07l-3-1.7c-5-2.86-9.46-3-12.93-1v0L6.88,7.9l4.65,10.45V72.2a4.24,4.24,0,0,0,2.1,3.66l20.46,11.8,6.65,15L52.26,96h0a3.66,3.66,0,0,0,1.87-3.21V42C54.13,27.35,45.25,10.39,34.31,4.07Z"/><path class="cls-3" d="M34.31,4.07l-3-1.7c-5-2.86-9.46-3-12.93-1v0L6.88,7.9l4.65,10.45V72.2a4.24,4.24,0,0,0,2.1,3.66l20.46,11.8,6.65,15L52.26,96h0a3.66,3.66,0,0,0,1.87-3.21V42C54.13,27.35,45.25,10.39,34.31,4.07Z"/><path class="cls-4" d="M25.12,123.45h0c-2.53-1.46-4.59-5.39-4.59-8.77V80.12l9.18,5.3V120C29.71,123.36,27.66,124.91,25.12,123.45Z"/><path class="cls-5" d="M37.05,102.63,2.11,82.45A4.2,4.2,0,0,1,0,78.8V24C0,9.35,8.88,2.64,19.82,9l3,1.71C33.73,17,42.6,34,42.6,48.55V99.42A3.7,3.7,0,0,1,37.05,102.63Z"/></g></g></svg>