<svg xmlns="http://www.w3.org/2000/svg" viewBox="0 0 83.27 136"><defs><style>.cls-1{fill:#fca1ff;}.cls-2{fill:#ff73e1;}.cls-3{fill:#aee0ff;}.cls-4{fill:#e9fcff;}.cls-5{fill:#d4145a;}.cls-6{fill:none;}</style></defs><title>soda</title><g id="Calque_2" data-name="Calque 2"><g id="Calque_1-2" data-name="Calque 1"><path class="cls-1" d="M18.76,89.09c12.64,7.14,33.13,7.14,45.77,0,4.94-2.79,7.94-6.27,9-9.89.86-6.83,1.93-14.76,3.43-24.92L6.55,55.61C8,65.37,9,73,9.82,79.45,11,83,13.93,86.36,18.76,89.09Z"/><path class="cls-1" d="M69.91,109c-1,3.18-3.62,6.23-8,8.68-11.21,6.34-29.39,6.34-40.6,0-4.38-2.47-7-5.55-8-8.75,0,0,.32,2.86,1.63,11.88-.07,3.9,2.53,7.82,7.8,10.8,10.41,5.88,27.29,5.88,37.7,0,5.27-3,7.86-6.9,7.8-10.8"/><path class="cls-2" d="M69.91,109c-1,3.18-3.62,6.23-8,8.68a35.93,35.93,0,0,1-10.17,3.7v13.51a33.11,33.11,0,0,0,8.71-3.28c5.27-3,7.86-6.9,7.8-10.8"/><path class="cls-2" d="M64.53,89.09c4.94-2.79,7.94-6.27,9-9.89.86-6.83,1.93-14.76,3.43-24.92l-25.2.48V93.51A41.35,41.35,0,0,0,64.53,89.09Z"/><ellipse class="cls-2" cx="41.64" cy="52.59" rx="35.47" ry="20.05"/><path class="cls-3" d="M71.08,68.34c8.13-4.59,12.19-10.62,12.19-16.65s0-10.73,0-10.73L0,40.37S0,45.68,0,51.7s4.06,12,12.19,16.64C28.47,77.53,54.82,77.53,71.08,68.34Z"/><ellipse class="cls-4" cx="41.65" cy="40.53" rx="41.62" ry="23.52"/><path class="cls-3" d="M63.31,52.38c6-3.38,9-7.82,9-12.25v-7.9L11,31.79s0,3.91,0,8.35S14,49,20,52.38C32,59.15,51.34,59.15,63.31,52.38Z"/><ellipse class="cls-4" cx="41.65" cy="31.91" rx="30.63" ry="17.32"/><path class="cls-3" d="M50.36,36.84c4.81-2.73,4.81-7.14,0-9.86s-12.61-2.72-17.43,0-4.81,7.13,0,9.86S45.55,39.56,50.36,36.84Z"/><path class="cls-2" d="M44.75,33.07A2.12,2.12,0,0,0,46,31.31V2.53l-8.77-.07V31.32a2.14,2.14,0,0,0,1.28,1.75A7,7,0,0,0,44.75,33.07Z"/><path class="cls-5" d="M44.75,4.23c1.71-1,1.71-2.54,0-3.5a7,7,0,0,0-6.21,0c-1.71,1-1.71,2.53,0,3.5A7,7,0,0,0,44.75,4.23Z"/><path class="cls-6" d="M21.36,117.71c11.2,6.33,29.37,6.33,40.57,0,4.12-2.33,6.69-5.2,7.78-8.2L73.55,79.2h0c-1.06,3.64-4.06,7.15-9,10-12.63,7.14-33.1,7.14-45.73,0-4.86-2.75-7.83-6.15-9-9.7l3.53,29.43C14.3,112.12,17,115.22,21.36,117.71Z"/><path class="cls-3" d="M64.51,89.16A41.77,41.77,0,0,1,51.68,93.6v27.82a36.48,36.48,0,0,0,10.25-3.71c4.12-2.33,6.69-5.2,7.78-8.2L73.55,79.2h0C72.49,82.84,69.49,86.35,64.51,89.16Z"/><path class="cls-4" d="M51.68,93.59c-11.2,2.07-24,.6-32.9-4.43-4.86-2.75-7.83-6.15-9-9.7l3.53,29.43c.94,3.23,3.6,6.33,8,8.82,8.2,4.63,20.12,5.86,30.32,3.71Z"/></g></g></svg>