<svg xmlns="http://www.w3.org/2000/svg" xmlns:xlink="http://www.w3.org/1999/xlink" viewBox="0 0 69.31 148"><defs><style>.cls-1{fill:none;}.cls-2{fill:#ff73e1;}.cls-3{clip-path:url(#clip-path);}.cls-4{fill:#e9fcff;}.cls-5{fill:#aee0ff;}.cls-6{opacity:0.75;}.cls-7{clip-path:url(#clip-path-2);}.cls-8{fill:#6cd5ff;}.cls-9{clip-path:url(#clip-path-3);}.cls-10{fill:#d65f95;}.cls-11{fill:#b24672;}.cls-12{clip-path:url(#clip-path-4);}.cls-13{clip-path:url(#clip-path-5);}.cls-14{fill:#3fa9f5;}.cls-15{clip-path:url(#clip-path-6);}.cls-16{fill:#fca1ff;}</style><clipPath id="clip-path"><ellipse class="cls-1" cx="32.86" cy="136.92" rx="19.19" ry="11.08"/></clipPath><clipPath id="clip-path-2"><path class="cls-1" d="M7.41,54.62a110.52,110.52,0,0,0,14.1,50h0a12.38,12.38,0,0,0,22.69,0h0a125.26,125.26,0,0,0,9.1-22.27,125.42,125.42,0,0,0,5-27.71Z"/></clipPath><clipPath id="clip-path-3"><path class="cls-1" d="M5,61.58c2.54,7.06,9.16,13.64,16.63,14.34,4.72.43,4.94-1.93,12-3,10.4-1.53,14,2.92,19.08.68,6.77-3,11-15.77,7-23.14-8-14.85-51.28-11-55.87,1.9C2.77,55.49,4,58.9,5,61.58Z"/></clipPath><clipPath id="clip-path-4"><path class="cls-1" d="M13.48,90.66c.63-.49,5,6.8,11.77,6.63,2.74-.07,3-1.31,6.62-1.76,5.51-.68,7.64,1.8,11.37,1.35,2.53-.3,6.07-2,9.87-8.65.34,14.71-10.29,25.36-20,25.29C19.19,113.42,12.47,91.44,13.48,90.66Z"/></clipPath><clipPath id="clip-path-5"><path class="cls-1" d="M4.73,45.76c-.48-4.5,5.33-5,10.18-14.4,4-7.79,1.76-10.75,6.6-16.78.94-1.16,6.76-8.41,12.54-7.59,3.12.45,4,2.93,9.34,9.74,6.84,8.69,8.16,8,11.8,13.59,4.25,6.52,7.32,11.22,5.87,16-2.62,8.58-18.71,13-31,12.25C18.89,57.8,5.43,52.42,4.73,45.76Z"/></clipPath><clipPath id="clip-path-6"><circle class="cls-2" cx="20.99" cy="32.09" r="9.25" transform="translate(-6.79 5.65) rotate(-13.23)"/></clipPath></defs><title>ice cream cup</title><g id="Calque_2" data-name="Calque 2"><g id="Calque_1-2" data-name="Calque 1"><g class="cls-3"><ellipse class="cls-4" cx="32.86" cy="136.92" rx="19.19" ry="11.08"/><path class="cls-5" d="M61.11,143.9c7.5-4.32,7.5-11.34,0-15.66s-19.64-4.33-27.14,0-7.49,11.34,0,15.66S53.62,148.23,61.11,143.9Z"/></g><path class="cls-5" d="M28.07,133,25.21,115a7.77,7.77,0,0,1,15.34-2.44,8,8,0,0,1,0,2.44L37.69,133a4.87,4.87,0,0,1-9.62,0Z"/><path class="cls-5" d="M.43,46.75a140.72,140.72,0,0,0,18,63.69h0a15.78,15.78,0,0,0,28.91,0h0a159.45,159.45,0,0,0,11.6-28.38A159,159,0,0,0,65.3,46.75Z"/><path class="cls-1" d="M.43,46.75a140.72,140.72,0,0,0,18,63.69h0a15.78,15.78,0,0,0,28.91,0h0a159.45,159.45,0,0,0,11.6-28.38A159,159,0,0,0,65.3,46.75Z"/><g class="cls-6"><g class="cls-7"><path class="cls-4" d="M7.41,54.62a110.52,110.52,0,0,0,14.1,50h0a12.38,12.38,0,0,0,22.69,0h0a125.26,125.26,0,0,0,9.1-22.27,125.42,125.42,0,0,0,5-27.71Z"/><path class="cls-8" d="M62.31,58.27,59.6,85.38,42.83,118.53S24.92,114.81,27,113.36a12.46,12.46,0,0,0,4.14-5.11h0A125.26,125.26,0,0,0,40.2,86a125.32,125.32,0,0,0,5-27.71Z"/><g class="cls-9"><path class="cls-10" d="M5,61.58c2.54,7.06,9.16,13.64,16.63,14.34,4.72.43,4.94-1.93,12-3,10.4-1.53,14,2.92,19.08.68,6.77-3,11-15.77,7-23.14-8-14.85-51.28-11-55.87,1.9C2.77,55.49,4,58.9,5,61.58Z"/><path class="cls-11" d="M62.18,52.28,59.6,85.38,42.83,118.53S24.92,114.81,27,113.36a12.46,12.46,0,0,0,4.14-5.11h0A126.72,126.72,0,0,0,40.2,86a126.72,126.72,0,0,0,5.34-34.51Z"/></g><g class="cls-12"><path class="cls-10" d="M13.48,90.66c.63-.49,5,6.8,11.77,6.63,2.74-.07,3-1.31,6.62-1.76,5.51-.68,7.64,1.8,11.37,1.35,2.53-.3,6.07-2,9.87-8.65.34,14.71-10.29,25.36-20,25.29C19.19,113.42,12.47,91.44,13.48,90.66Z"/><path class="cls-11" d="M62.31,58.27,59.6,85.38,42.83,118.53S24.92,114.81,27,113.36a12.46,12.46,0,0,0,4.14-5.11h0A125.26,125.26,0,0,0,40.2,86a125.32,125.32,0,0,0,5-27.71Z"/></g></g></g><ellipse class="cls-4" cx="32.86" cy="43.68" rx="32.86" ry="18.97"/><g class="cls-13"><path class="cls-4" d="M4.73,45.76c-.48-4.5,5.33-5,10.18-14.4,4-7.79,1.76-10.75,6.6-16.78.94-1.16,6.76-8.41,12.54-7.59,3.12.45,4,2.93,9.34,9.74,6.84,8.69,8.16,8,11.8,13.59,4.25,6.52,7.32,11.22,5.87,16-2.62,8.58-18.71,13-31,12.25C18.89,57.8,5.43,52.42,4.73,45.76Z"/><path class="cls-8" d="M39.14,7.51c-1.39.69.21,6.76,3.4,18.9,2.81,10.68,4.6,14.72,8.18,18.63,1,1,7.36,8,11.42,6.78,3.91-1.22,3.84-9.56,3.24-14C63,20,43.38,5.42,39.14,7.51Z"/><path class="cls-8" d="M35.75,16.77c-1,0-1.31,9.67-1.39,12.63-.27,10-.35,15.05,2,18.77,4.1,6.47,12.64,10.06,14,9,.75-.57-.77-2.28-4.94-10.43-2.73-5.32-4.11-8-5.09-11.2-.71-2.27-.52-2.33-2.16-9.77C36.31,17.11,36,16.76,35.75,16.77Z"/><path class="cls-8" d="M29.42,27.71c-.37,0-1,2.46-2.16,7.43-1.09,4.5-1.14,6-1.7,8.47-2,9.12-6.91,14.64-6,15.11.57.3,3-1.74,4.94-4C33.74,43.66,30.62,27.77,29.42,27.71Z"/></g><path class="cls-14" d="M48.44,34.12q7-16.45,13.93-32.92c.61-1.45,3-1.62,4.74-.34l.78.57a2.68,2.68,0,0,1,1.27,3.09Q61.8,20.69,54.44,36.87c-.77,1.7-3.89,1.48-5.45-.38A2.34,2.34,0,0,1,48.44,34.12Z"/><path class="cls-8" d="M30,40.61c0,2-3.15,3.65-7,3.65s-7-1.63-7-3.65S19.06,37,23,37,30,38.59,30,40.61Z"/><circle class="cls-2" cx="20.99" cy="32.09" r="9.25" transform="translate(-6.79 5.65) rotate(-13.23)"/><g class="cls-15"><circle class="cls-2" cx="20.99" cy="32.09" r="9.25" transform="translate(-6.79 5.65) rotate(-13.23)"/><circle class="cls-16" cx="16.92" cy="28.91" r="9.25" transform="translate(-6.21 4.68) rotate(-13.34)"/></g></g></g></svg>