<svg xmlns="http://www.w3.org/2000/svg" viewBox="0 0 124.59 108"><defs><style>.cls-1{fill:#ff73e1;}.cls-2{fill:#2ab7b7;}.cls-3{fill:#fca1ff;}.cls-4{fill:#5af9c4;}.cls-5{fill:#6950dd;}</style></defs><title>watermelon</title><g id="Calque_2" data-name="Calque 2"><g id="Calque_1-2" data-name="Calque 1"><path class="cls-1" d="M80.56,81.66C60.36,70,41,49.54,26.7,24.81L69,.43A3.22,3.22,0,0,1,73.38,1.6l50.78,87.65A3.19,3.19,0,0,1,123,93.62L106.74,103Z"/><path class="cls-2" d="M124.16,89.25,117.7,78.09,98.7,89l8,13.94L123,93.62A3.19,3.19,0,0,0,124.16,89.25Z"/><path class="cls-3" d="M52.89,9.68,1.29,39.48A2.57,2.57,0,0,0,.36,43c14.14,23.72,33,43.3,52.53,54.6,20.26,11.7,39.71,13.59,54,5.26Z"/><path class="cls-4" d="M106.88,102.87,98.82,89c-9.07,5.29-22.9,3.38-37.88-5.27-17.67-10.2-35.15-28.77-48-51L1.29,39.48A2.57,2.57,0,0,0,.36,43c14.14,23.72,33,43.3,52.53,54.6,20.26,11.7,39.71,13.59,54,5.26Z"/><path class="cls-5" d="M32,41.38a2.37,2.37,0,0,1-3.26.39,2.35,2.35,0,0,1,.4-3.25,2.35,2.35,0,0,1,3.25-.4A2.37,2.37,0,0,1,32,41.38Z"/><path class="cls-5" d="M52,60.66c-.75,2.12-2.26,3.52-3.38,3.12s-1.42-2.43-.67-4.55,2.26-3.52,3.38-3.13S52.79,58.54,52,60.66Z"/><path class="cls-5" d="M46.86,34.44c-1,1.67-2.57,2.53-3.6,1.94S42.18,34,43.14,32.3s2.57-2.53,3.6-1.94S47.82,32.78,46.86,34.44Z"/><path class="cls-5" d="M77.25,73c.62,2.37.19,4.53-1,4.82s-2.58-1.37-3.19-3.74-.18-4.52,1-4.82S76.64,70.66,77.25,73Z"/><path class="cls-5" d="M65.34,48.35c0,2.19-1,4-2.15,4s-2.14-1.79-2.14-4,1-4,2.14-4S65.34,46.15,65.34,48.35Z"/></g></g></svg>