<svg xmlns="http://www.w3.org/2000/svg" xmlns:xlink="http://www.w3.org/1999/xlink" viewBox="0 0 68.35 140.5"><defs><style>.cls-1{fill:#aee0ff;}.cls-2{fill:none;}.cls-3{clip-path:url(#clip-path);}.cls-4{fill:#e9fcff;}.cls-5{fill:#b6ceff;}.cls-6{clip-path:url(#clip-path-2);}.cls-7{fill:#fff080;}.cls-8{fill:#f794bd;}.cls-9{fill:#fff;}</style><clipPath id="clip-path"><path class="cls-1" d="M52.51,135.78c4.94-2.79,7.43-6.44,7.47-10.09a278.75,278.75,0,0,1,1.63-36.26c1.28-11.24,5.32-23.61,6.14-34.82a236.59,236.59,0,0,0-.14-36H1.4a237,237,0,0,0-.15,36C2.06,65.83,6.1,78.22,7.38,89.48A278,278,0,0,1,9,125.69c0,3.65,2.53,7.3,7.47,10.09C26.41,141.41,42.56,141.41,52.51,135.78Z"/></clipPath><clipPath id="clip-path-2"><path class="cls-2" d="M48.13,129c3.83-2.17,5.77-5,5.8-7.84,0-1.1-.43-18.91,1.27-33.71,1-8.74,4.13-18.35,4.77-27.07,1.12-15.39-.11-22.45-.11-22.45H8.39S7.16,45,8.28,60.37C8.91,69.1,12.05,78.73,13,87.48c1.69,14.79,1.24,32.58,1.26,33.68,0,2.84,2,5.67,5.8,7.84C27.84,133.38,40.39,133.38,48.13,129Z"/></clipPath></defs><title>beer</title><g id="Calque_2" data-name="Calque 2"><g id="Calque_1-2" data-name="Calque 1"><path class="cls-1" d="M52.51,135.78c4.94-2.79,7.43-6.44,7.47-10.09a278.75,278.75,0,0,1,1.63-36.26c1.28-11.24,5.32-23.61,6.14-34.82a236.59,236.59,0,0,0-.14-36H1.4a237,237,0,0,0-.15,36C2.06,65.83,6.1,78.22,7.38,89.48A278,278,0,0,1,9,125.69c0,3.65,2.53,7.3,7.47,10.09C26.41,141.41,42.56,141.41,52.51,135.78Z"/><g class="cls-3"><path class="cls-1" d="M52.51,135.78c4.94-2.79,7.43-6.44,7.47-10.09a278.75,278.75,0,0,1,1.63-36.26c1.28-11.24,5.32-23.61,6.14-34.82a236.59,236.59,0,0,0-.14-36H1.4a237,237,0,0,0-.15,36C2.06,65.83,6.1,78.22,7.38,89.48A278,278,0,0,1,9,125.69c0,3.65,2.53,7.3,7.47,10.09C26.41,141.41,42.56,141.41,52.51,135.78Z"/><rect class="cls-4" y="16.01" width="38.21" height="124.49"/></g><ellipse class="cls-5" cx="34.48" cy="18.71" rx="33.1" ry="18.71"/><g class="cls-6"><path class="cls-7" d="M48.13,129c3.83-2.17,5.77-5,5.8-7.84,0-1.1-.43-18.91,1.27-33.71,1-8.74,4.13-18.35,4.77-27.07,1.12-15.39-.11-22.45-.11-22.45H8.39S7.16,45,8.28,60.37C8.91,69.1,12.05,78.73,13,87.48c1.69,14.79,1.24,32.58,1.26,33.68,0,2.84,2,5.67,5.8,7.84C27.84,133.38,40.39,133.38,48.13,129Z"/><path class="cls-8" d="M38.44,134.38l18-5.81,7.2-95.3-21.33.28a150.47,150.47,0,0,1,1.11,23.82C42.81,76.09,39,84.53,37.6,102.25A156.45,156.45,0,0,0,38.44,134.38Z"/></g><path class="cls-4" d="M60.08,38.46s0-15.35,0-16.3c0-3.76-2.53-7.51-7.6-10.37-10.13-5.73-26.56-5.73-36.7,0-5.06,2.86-7.6,6.61-7.6,10.37,0,1.56-.05,16.09-.05,16.09h.08C8.06,42.09,10.57,46,15.76,48.9c10.14,5.73,26.57,5.73,36.7,0,5.1-2.88,7.63-6.66,7.6-10.44Z"/><path class="cls-9" d="M52.46,32.53c5.07-2.86,7.6-6.62,7.6-10.37s-2.53-7.51-7.6-10.37c-10.13-5.73-26.56-5.73-36.7,0s-10.13,15,0,20.74S42.33,38.26,52.46,32.53Z"/><path class="cls-4" d="M57.89,5.48C45-1.83,24-1.83,11.08,5.48s-12.93,19.15,0,26.46,33.88,7.31,46.81,0S70.82,12.79,57.89,5.48ZM53.81,29.63c-10.67,6-28,6-38.65,0s-10.67-15.81,0-21.84,28-6,38.65,0S64.48,23.6,53.81,29.63Z"/><path class="cls-9" d="M23.14,92.05l-2.09-.5a6.7,6.7,0,0,1-2.17-2.1c-1.44-2.27-.23-4.58-.71-7.4C17.47,78,16.65,76.2,16,72.89c-.7-3.48-1.3-6.91-.61-10.85.33-1.82.8-3.06,1.76-3.42,1.16-.44,2.55.53,3.32,1.06,1.59,1.11,2.6,2.5,2.56,2.93a37.88,37.88,0,0,0,.34,9.59c.62,3.71,1.51,5.46,2.07,9.56a41,41,0,0,1,.33,7.8A2.66,2.66,0,0,1,23.14,92.05Z"/></g></g></svg>