<svg xmlns="http://www.w3.org/2000/svg" xmlns:xlink="http://www.w3.org/1999/xlink" viewBox="0 0 85.62 80.23"><defs><style>.cls-1{fill:none;}.cls-2{clip-path:url(#clip-path);}.cls-3{fill:#ffc1ae;}.cls-4{fill:#f794bd;}.cls-5{clip-path:url(#clip-path-2);}.cls-6{fill:#fca1ff;}.cls-7{fill:#ea59ce;}.cls-8{clip-path:url(#clip-path-3);}.cls-9{fill:#ffd5ab;}.cls-10{fill:#e9fcff;}.cls-11{fill:#ff73e1;}</style><clipPath id="clip-path"><path class="cls-1" d="M85.35,33.8,0,32.55v13H0a1.54,1.54,0,0,0,.78,1.35L56.88,79.42a4.18,4.18,0,0,0,4.28,0A62.38,62.38,0,0,0,77,65.91C81.83,60,84.65,53.57,85.34,47a2.61,2.61,0,0,0,0-.28h0Z"/></clipPath><clipPath id="clip-path-2"><path class="cls-1" d="M85.35,20.83,0,19.58v13H0A1.53,1.53,0,0,0,.79,33.9L56.88,66.46a4.21,4.21,0,0,0,4.28,0A62.18,62.18,0,0,0,77,52.94a36,36,0,0,0,8.33-18.87,2.43,2.43,0,0,0,0-.27h0Z"/></clipPath><clipPath id="clip-path-3"><path class="cls-1" d="M85.35,7.86,0,6.61v13H0a1.55,1.55,0,0,0,.78,1.36L56.88,53.49a4.18,4.18,0,0,0,4.28,0A62.58,62.58,0,0,0,77,40c4.82-5.94,7.64-12.35,8.33-18.87a2.61,2.61,0,0,0,0-.28h0Z"/></clipPath></defs><title>cake</title><g id="Calque_2" data-name="Calque 2"><g id="Calque_1-2" data-name="Calque 1"><g class="cls-2"><path class="cls-3" d="M85.35,33.8,0,32.55v13H0a1.54,1.54,0,0,0,.78,1.35L56.88,79.42a4.18,4.18,0,0,0,4.28,0A62.38,62.38,0,0,0,77,65.91C81.83,60,84.65,53.57,85.34,47a2.61,2.61,0,0,0,0-.28h0Z"/><rect class="cls-4" x="59.12" y="7.7" width="26.51" height="72.53"/></g><g class="cls-5"><path class="cls-6" d="M85.35,20.83,0,19.58v13H0A1.53,1.53,0,0,0,.79,33.9L56.88,66.46a4.21,4.21,0,0,0,4.28,0A62.18,62.18,0,0,0,77,52.94a36,36,0,0,0,8.33-18.87,2.43,2.43,0,0,0,0-.27h0Z"/><rect class="cls-7" x="59.12" y="7.7" width="26.51" height="72.53"/></g><g class="cls-8"><path class="cls-9" d="M85.35,7.86,0,6.61v13H0a1.55,1.55,0,0,0,.78,1.36L56.88,53.49a4.18,4.18,0,0,0,4.28,0A62.58,62.58,0,0,0,77,40c4.82-5.94,7.64-12.35,8.33-18.87a2.61,2.61,0,0,0,0-.28h0Z"/><rect class="cls-4" x="59.12" y="7.7" width="26.51" height="72.53"/></g><path class="cls-10" d="M.79,8,56.88,40.52a4.18,4.18,0,0,0,4.28,0A62.38,62.38,0,0,0,77,27c4.82-5.94,7.64-12.34,8.33-18.87a2.65,2.65,0,0,0-2.63-2.91L1.59,5A1.59,1.59,0,0,0,.79,8Z"/><path class="cls-10" d="M34.25,44.85l-.35-.21a5.66,5.66,0,0,1-2.37-4.52V25.45l5.09,2.93V43.06C36.62,44.8,35.56,45.6,34.25,44.85Z"/><path class="cls-10" d="M45.75,57.39l-.58-.33c-2.16-1.25-3.91-4.6-3.91-7.48V30.85l8.4,4.85V54.44C49.66,57.32,47.91,58.64,45.75,57.39Z"/><circle class="cls-11" cx="56.96" cy="11.29" r="11.29" transform="translate(24.87 59.68) rotate(-67.66)"/><path class="cls-6" d="M45.67,11.29a11.23,11.23,0,0,0,2.14,6.59,11.21,11.21,0,0,0,4.19.81A11.27,11.27,0,0,0,61.15.81,11.28,11.28,0,0,0,45.67,11.29Z"/></g></g></svg>