<svg xmlns="http://www.w3.org/2000/svg" xmlns:xlink="http://www.w3.org/1999/xlink" viewBox="0 0 91.83 140.75"><defs><style>.cls-1{fill:none;}.cls-2{clip-path:url(#clip-path);}.cls-3{fill:#aee0ff;}.cls-4{fill:#3fa9f5;}.cls-5{clip-path:url(#clip-path-2);}.cls-6{fill:#2ab7b7;}.cls-7{fill:#5af9c4;}.cls-8{fill:#aeffe2;}.cls-9{fill:#e9fcff;}.cls-10{fill:#fff080;}.cls-11{fill:#fca1ff;}.cls-12{fill:#fff5bd;}</style><clipPath id="clip-path"><path class="cls-1" d="M85.27,49.07l-79.94,0,14.88,76.47h0c0,3.7,2.44,7.41,7.34,10.24,9.79,5.65,25.66,5.65,35.45,0,4.9-2.83,7.35-6.54,7.34-10.24Z"/></clipPath><clipPath id="clip-path-2"><path class="cls-1" d="M75.84,64.93H14.76l11.37,58.42h0c0,2.84,1.87,5.67,5.61,7.83,7.48,4.32,19.61,4.32,27.09,0,3.74-2.16,5.61-5,5.61-7.83Z"/></clipPath></defs><title>cocktail</title><g id="Calque_2" data-name="Calque 2"><g id="Calque_1-2" data-name="Calque 1"><g class="cls-2"><path class="cls-3" d="M85.27,49.07l-79.94,0,14.88,76.47h0c0,3.7,2.44,7.41,7.34,10.24,9.79,5.65,25.66,5.65,35.45,0,4.9-2.83,7.35-6.54,7.34-10.24Z"/><rect class="cls-4" x="45.67" y="44.67" width="40.58" height="96.08"/></g><ellipse class="cls-3" cx="45.3" cy="49.07" rx="39.96" ry="23.07"/><g class="cls-5"><path class="cls-6" d="M75.84,64.93H14.76l11.37,58.42h0c0,2.84,1.87,5.67,5.61,7.83,7.48,4.32,19.61,4.32,27.09,0,3.74-2.16,5.61-5,5.61-7.83Z"/><rect class="cls-7" x="9.06" y="53.45" width="36.3" height="82.33"/><polygon class="cls-7" points="66.17 128.5 59.61 132.38 69.81 61.69 78.92 64 66.17 128.5"/></g><ellipse class="cls-8" cx="45.3" cy="64.93" rx="30.53" ry="17.63"/><path class="cls-9" d="M73.55,32.75c-15.61-9-40.9-9-56.51,0S1.44,56.37,17,65.38s40.9,9,56.51,0S89.15,41.76,73.55,32.75ZM69,62.47c-13.1,7.41-34.33,7.41-47.43,0s-13.1-19.41,0-26.81,34.33-7.41,47.43,0S82.11,55.07,69,62.47Z"/><path class="cls-4" d="M38.92,63.12a3.75,3.75,0,0,1-3.48-2.35L13.24,5.13a3.74,3.74,0,1,1,7-2.77L42.4,58a3.74,3.74,0,0,1-2.09,4.86A3.62,3.62,0,0,1,38.92,63.12Z"/><path class="cls-4" d="M3.74,29.44A3.74,3.74,0,0,1,.52,23.79l13-21.95a3.75,3.75,0,0,1,6.45,3.81L7,27.6A3.73,3.73,0,0,1,3.74,29.44Z"/><path class="cls-10" d="M85.47,20.18a40.76,40.76,0,0,1,.87-8.6S80.41,8.1,79.71,7.72c-3.44-1.9-8.16-1.58-13.36,1.42-10.56,6.1-19.12,20.93-19.12,33.12,0,6.06,2.11,10.32,5.53,12.34l6.5,3.75a46.79,46.79,0,0,1,7.09-5.05C70.26,51,66,34.89,69,30.81c1.88-2.53,11.47,7.4,12.81,4.53A36.94,36.94,0,0,0,85.47,20.18Z"/><path class="cls-11" d="M91.83,23.88c0-12.2-8.56-17.14-19.12-11S53.59,33.76,53.59,46c0,6.63,2.53,11.11,6.54,12.85,0,0,8.77-5.06,8.77-5.06l-.24-18.21a4.51,4.51,0,0,1,2.07-2.67c1.87-1.31,2.82-.12,2.82-.12a34.75,34.75,0,0,1,7.13,5.55,20.09,20.09,0,0,1,4,6.94C89,38.67,91.83,30.85,91.83,23.88Z"/><path class="cls-12" d="M72.71,20.43c-6.93,4-12.54,13.73-12.54,21.73,0,6.46,3.64,9.8,8.69,8.75,0-.76-.2-15.37-.2-15.37a4.51,4.51,0,0,1,2.07-2.67c1.87-1.31,2.82-.12,2.82-.12a34.75,34.75,0,0,1,7.13,5.55,17.25,17.25,0,0,1,1.11,1.35,25.4,25.4,0,0,0,3.46-12C85.25,19.68,79.64,16.43,72.71,20.43Z"/></g></g></svg>