<svg xmlns="http://www.w3.org/2000/svg" xmlns:xlink="http://www.w3.org/1999/xlink" viewBox="0 0 108.84 78.46"><defs><style>.cls-1{fill:none;}.cls-2{clip-path:url(#clip-path);}.cls-3{fill:#f794bd;}.cls-4{fill:#fce4be;}.cls-5{clip-path:url(#clip-path-2);}.cls-6{fill:#b24672;}.cls-7{fill:#d65f95;}.cls-8{fill:#fff080;}.cls-9{fill:#fca1ff;}.cls-10{fill:#5af9c4;}.cls-11{fill:#6cd5ff;}</style><clipPath id="clip-path"><path class="cls-1" d="M54.84,78.46c-12.37,0-24.75-2.85-34.62-8.55C7.9,62.8.84,51.89.84,40S7.91,17.18,20.22,10.07C40-1.32,69.73-1.33,89.46,10.07c12.32,7.11,19.38,18,19.38,29.92S101.78,62.8,89.46,69.91C79.59,75.61,67.22,78.46,54.84,78.46ZM37.2,40l.22.13c9.12,5.26,25.73,5.26,34.85,0l.22-.13-.22-.13c-9.12-5.26-25.73-5.26-34.85,0Z"/></clipPath><clipPath id="clip-path-2"><path class="cls-1" d="M107.16,27.54C103.18,8,69.36.62,49.35.41,38.15.29,14.59,0,5.74,15.67c-6.83,12.09-1,26.8-.39,28.27,1.34,3.26,5.84,12.76,15.81,17.6,5.52,2.68,8.07,1.67,22.54,3,19.84,1.77,18.64,4,26.09,3.17,3.39-.37,19.8-2.59,30.05-16.81C102.28,47.48,109.25,37.82,107.16,27.54ZM53.37,42.92c-5.15,0-15.52,0-18.64-5.82-.35-.65-1.22-2.29-.59-3.71,1.28-2.9,7.28-1.34,17.76-2.2s13.23-3.07,18.19-.69c2.28,1.09,6.21,3.74,5.86,6.3C75.31,41.44,61.08,42.92,53.37,42.92Z"/></clipPath></defs><title>donut</title><g id="Calque_2" data-name="Calque 2"><g id="Calque_1-2" data-name="Calque 1"><g class="cls-2"><path class="cls-3" d="M54.84,78.46c-12.37,0-24.75-2.85-34.62-8.55C7.9,62.8.84,51.89.84,40S7.91,17.18,20.22,10.07C40-1.32,69.73-1.33,89.46,10.07c12.32,7.11,19.38,18,19.38,29.92S101.78,62.8,89.46,69.91C79.59,75.61,67.22,78.46,54.84,78.46ZM37.2,40l.22.13c9.12,5.26,25.73,5.26,34.85,0l.22-.13-.22-.13c-9.12-5.26-25.73-5.26-34.85,0Z"/><path class="cls-4" d="M20.3,70.58C18.52,69.62,1.46,60.06.09,42.49-1.06,27.83,9.47,17.2,12.42,14.23,34-7.53,69.91,1.92,72.88,2.75A72.72,72.72,0,0,1,99.94,17.14c0,6.89-1,19.61-9.08,31.68C75.87,71.39,42.56,82.6,20.3,70.58Z"/><path class="cls-3" d="M67.83,38.63c-11.55,4.09-19.89,3.95-24.24,3.51C40,41.79,37.24,41,35.46,38.8A9.1,9.1,0,0,1,34.26,30c3.27-7.53,21.45-11.08,29.46-2.65C67.16,31,67.76,35.79,67.83,38.63Z"/><path class="cls-1" d="M103,26c.54-3.87-1.57-7.14-2.57-8.69C95.53,9.66,77.08-.2,51.11.4c-1.77,0-34.51,1-38.25,13.5-.57,1.9-.28,3.51-1.63,8.89C9.17,31,7.19,32.45,8,35.84s3.06,3.32,8.15,9c6,6.78,4.56,8.78,8.3,11.42,5.07,3.56,8.43.35,19.28,2.07s10.84,5.56,17.59,5.14c8.12-.5,8-6,20.76-10.87,9.11-3.48,14-2.56,16-6.72,1.75-3.68-1.31-6.15.79-11.86C100.33,30,102.51,29.45,103,26Zm-49.45,18c-11.9-.42-22.66-6.84-22.2-10.18.16-1.16,1.58-1.22,4-4.3s2-4.18,3.41-5.48c2.72-2.58,6.3,0,14.08,0,9,0,12.9-3.44,15.87-.74,1.59,1.45.8,2.76,3.11,6.07,2.72,3.9,5.13,4,5.26,5.53C77.42,38.33,65.87,44.37,53.56,43.94Z"/><g class="cls-5"><path class="cls-6" d="M107.16,27.54C102.93,9,69.84,2.54,49.41,3.14c-5.24.15-39.31,1.15-46,19.78-3.15,8.78.87,18.49,1.92,21,1.29,3.13,5.77,12.72,15.81,17.6,5.52,2.68,8.07,1.67,22.54,3,19.84,1.77,18.64,4,26.09,3.17,3.39-.37,19.8-2.59,30.05-16.81C102.38,47.35,109.45,37.58,107.16,27.54ZM53.37,42.92c-5.15,0-15.52,0-18.64-5.82-.35-.65-1.22-2.29-.59-3.71,1.28-2.9,7.28-1.34,17.76-2.2s13.23-3.07,18.19-.69c2.28,1.09,6.21,3.74,5.86,6.3C75.31,41.44,61.08,42.92,53.37,42.92Z"/><path class="cls-6" d="M34.66,34.21a9.4,9.4,0,0,1,.59-8.31c6.69-11.77,38.78-8.42,42,1.19.92,2.79-.76,5.57-1.34,6.52C68.74,45.44,39.37,44.49,34.66,34.21Z"/><path class="cls-7" d="M20.3,70.58C18.52,69.62,1.46,60.06.09,42.49-1.06,27.83,9.47,17.2,12.42,14.23,34-7.53,69.91,1.92,72.88,2.75A72.72,72.72,0,0,1,99.94,17.14c0,6.89-1,19.61-9.08,31.68C75.87,71.39,42.56,82.6,20.3,70.58Z"/><path class="cls-6" d="M67.83,38.63c-4.93,2.27-14.39,5.74-24.24,3.51-2.78-.62-6.9-1.62-8.82-5.11a8.53,8.53,0,0,1-.51-7c3.07-7.35,21.43-11.1,29.46-2.65C67.16,31,67.76,35.79,67.83,38.63Z"/></g></g><path class="cls-8" d="M81.8,13.38a1,1,0,0,0-.09-.34L80.14,9.45c-.38-.88-1.8-1.32-3.16-1s-2.15,1.33-1.76,2.22c0,0-.54,1.05-.33,1.54l1.57,3.59a1.85,1.85,0,0,0,1.22.95,3.54,3.54,0,0,0,1.94,0c1.17-.29,1.95-1.08,1.86-1.88A9.65,9.65,0,0,0,81.8,13.38Z"/><path class="cls-9" d="M43.92.78a2.57,2.57,0,0,0-3.58.6L37,6.08a2.57,2.57,0,0,0,4.19,3l3.34-4.7A2.57,2.57,0,0,0,43.92.78Z"/><path class="cls-10" d="M63.94,14.12,59.2,10.84a2.57,2.57,0,1,0-2.92,4.23L61,18.35a2.57,2.57,0,0,0,4-2.58A2.53,2.53,0,0,0,63.94,14.12Z"/><path class="cls-11" d="M46.22,51.67,41.47,48.4a2.58,2.58,0,0,0-3.58.65A2.62,2.62,0,0,0,37.48,51a2.57,2.57,0,0,0,1.07,1.66L43.3,55.9a2.53,2.53,0,0,0,1.46.46,2.57,2.57,0,0,0,1.46-4.69Z"/><path class="cls-10" d="M28.89,37.81a2.56,2.56,0,0,0-1.55-1.2,2.63,2.63,0,0,0-2,.26l-5,2.89a2.57,2.57,0,0,0,1.28,4.79A2.64,2.64,0,0,0,23,44.21l5-2.89A2.57,2.57,0,0,0,28.89,37.81Z"/><path class="cls-8" d="M24.57,21.27l-1.64-4.51a2.11,2.11,0,0,0-1.1-1.21,2.14,2.14,0,0,0-2.91,2.67l1.64,4.51a2.13,2.13,0,0,0,2,1.4,2,2,0,0,0,.73-.13A2.13,2.13,0,0,0,24.57,21.27Z"/><path class="cls-11" d="M93.77,42.62l-2-5.42A2.57,2.57,0,1,0,87,39l2,5.43a2.57,2.57,0,0,0,4.83-1.76Z"/><path class="cls-9" d="M74.55,55.51A2.52,2.52,0,0,0,73,54.31a2.58,2.58,0,0,0-2,.25l-5,2.89a2.57,2.57,0,0,0,1.28,4.79,2.64,2.64,0,0,0,1.29-.34l5-2.89A2.56,2.56,0,0,0,74.55,55.51Z"/></g></g></svg>