<svg xmlns="http://www.w3.org/2000/svg" xmlns:xlink="http://www.w3.org/1999/xlink" viewBox="0 0 75.97 147.39"><defs><style>.cls-1{fill:none;}.cls-2{clip-path:url(#clip-path);}.cls-3{fill:#f794bd;}.cls-4{fill:#fce4be;}.cls-5{opacity:0.65;}.cls-6{fill:#de4680;}.cls-7{clip-path:url(#clip-path-2);}.cls-8{fill:#e9fcff;}.cls-9{fill:#6cd5ff;}.cls-10{clip-path:url(#clip-path-3);}.cls-11{clip-path:url(#clip-path-4);}.cls-12{fill:#fff080;}.cls-13{fill:#fca1ff;}.cls-14{fill:#5af9c4;}</style><clipPath id="clip-path"><path class="cls-1" d="M67.21,60.22c0-4.33-2.86-8.66-8.58-12-11.45-6.6-30-6.6-41.45,0-5.72,3.31-8.58,7.63-8.58,12,0,3.14,15.38,54.84,23.84,83.06a5.68,5.68,0,0,0,10.88,0C51.8,115.06,67.21,63.35,67.21,60.22Z"/></clipPath><clipPath id="clip-path-2"><path class="cls-1" d="M12.69,66.86C25.82,80.4,53.78,78.16,63.78,67a19.85,19.85,0,0,0,5.39-10.92c.29-2.33.83-6.72-1.3-9-5.76-6.23-23.33,11.17-39.18,5.12-10.44-4-13-15.36-17.9-13.81-4.06,1.27-5.63,10-4.51,16.38A23.3,23.3,0,0,0,12.69,66.86Z"/></clipPath><clipPath id="clip-path-3"><path class="cls-1" d="M12.05,47.9c8.59,16.35,43.4,17.94,52.86,3.28a16.72,16.72,0,0,0,1.55-15.1c-7-16.36-46.31-18.78-54.83-4.14C8.64,37.09,9.83,43.68,12.05,47.9Z"/></clipPath><clipPath id="clip-path-4"><path class="cls-1" d="M15.53,31C20.91,45.75,47.76,49.3,59,39.91c1-.83,5-4.12,5.25-8.88.35-7.27-8.79-12.14-9.85-12.7A22.24,22.24,0,0,0,41.31,16a12.76,12.76,0,0,1-3-6c-.84-4.4,1.44-6.77.41-8-2-2.42-15.31,1.33-21,11.82C16.85,15.32,12.71,23.27,15.53,31Z"/></clipPath></defs><title>ice cone</title><g id="Calque_2" data-name="Calque 2"><g id="Calque_1-2" data-name="Calque 1"><g class="cls-2"><path class="cls-3" d="M67.21,60.22c0-4.33-2.86-8.66-8.58-12-11.45-6.6-30-6.6-41.45,0-5.72,3.31-8.58,7.63-8.58,12,0,3.14,15.38,54.84,23.84,83.06a5.68,5.68,0,0,0,10.88,0C51.8,115.06,67.21,63.35,67.21,60.22Z"/><path class="cls-4" d="M34.49,58.89c-1.21-4.16-5.16-7.52-11.58-9.09a33.56,33.56,0,0,0-7.55-.92c-11.58-.17-7.5,12.44-7.5,12.44s25.06,90.05,26.54,85.94a6,6,0,0,0,.34-1.94C35,115.85,35.37,61.9,34.49,58.89Z"/><g class="cls-5"><polygon class="cls-6" points="18.61 102.45 17.38 100.31 65.42 72.45 66.65 74.59 18.61 102.45"/><rect class="cls-6" x="14.68" y="102.22" width="49.24" height="2.47" transform="translate(-46.46 33.51) rotate(-30)"/><polygon class="cls-6" points="24.98 127.7 23.75 125.56 55.25 107.06 56.48 109.2 24.98 127.7"/><polygon class="cls-6" points="24.98 142.1 23.75 139.97 50.75 124.43 51.98 126.57 24.98 142.1"/><polygon class="cls-6" points="56.08 101.64 9.49 74.59 10.72 72.45 57.32 99.5 56.08 101.64"/><polygon class="cls-6" points="56.08 116.05 9.49 89 10.72 86.86 57.32 113.91 56.08 116.05"/><polygon class="cls-6" points="49.71 126.96 9.49 103.41 10.72 101.27 50.94 124.82 49.71 126.96"/><polygon class="cls-6" points="49.71 141.37 9.49 117.82 10.72 115.68 50.94 139.23 49.71 141.37"/></g></g><path class="cls-4" d="M38,86.29c-9.25,0-18.49-2.08-25.7-6.24C4.36,75.48,0,69.07,0,62S4.36,48.52,12.28,44c14.41-8.32,37-8.32,51.41,0C71.61,48.52,76,54.93,76,62s-4.36,13.48-12.28,18h0C56.49,84.21,47.23,86.29,38,86.29Z"/><path class="cls-3" d="M38.55,53.21c-7.92,4.58-12.28,11-12.28,18.06C26.27,76.83,29,82,34,86.15c1.33.09,2.66.14,4,.14,9.25,0,18.51-2.08,25.71-6.24C71.61,75.48,76,69.07,76,62c0-5.56-2.71-10.71-7.72-14.89C57.72,46.43,46.8,48.45,38.55,53.21Z"/><path class="cls-1" d="M38,86.29c-9.25,0-18.49-2.08-25.7-6.24C4.36,75.48,0,69.07,0,62S4.36,48.52,12.28,44c14.41-8.32,37-8.32,51.41,0C71.61,48.52,76,54.93,76,62s-4.36,13.48-12.28,18h0C56.49,84.21,47.23,86.29,38,86.29Z"/><g class="cls-7"><path class="cls-8" d="M12.69,66.86C25.82,80.4,53.78,78.16,63.78,67a19.85,19.85,0,0,0,5.39-10.92c.29-2.33.83-6.72-1.3-9-5.76-6.23-23.33,11.17-39.18,5.12-10.44-4-13-15.36-17.9-13.81-4.06,1.27-5.63,10-4.51,16.38A23.3,23.3,0,0,0,12.69,66.86Z"/><path class="cls-9" d="M35.94,60.63a10.17,10.17,0,0,1,2.19,6.78,10.7,10.7,0,0,1-7,9c14.59,3.6,28.23-.61,34.65-10.13,4.59-6.79,6.41-17.62,2.2-20.87C60.91,39.93,39.28,57.83,35.94,60.63Z"/><path class="cls-8" d="M62.4,52.38a14.49,14.49,0,0,1,2.61,5,15.25,15.25,0,0,1-.52,9.71c.79-.46,9.47-5.67,9.39-14.09,0-5-3.13-10.84-6-10.65C65.45,42.51,63.16,46.7,62.4,52.38Z"/></g><g class="cls-10"><path class="cls-8" d="M12.05,47.9c8.59,16.35,43.4,17.94,52.86,3.28a16.72,16.72,0,0,0,1.55-15.1c-7-16.36-46.31-18.78-54.83-4.14C8.64,37.09,9.83,43.68,12.05,47.9Z"/><path class="cls-9" d="M41.54,45a12.07,12.07,0,0,1,2.16,7c-.1,5.91-4.78,9.4-5.36,9.81,14.49,2.5,27.23-2.27,32.08-11.48,2.64-5,3.91-13.14.21-16.28C66.09,30.15,54.55,34.25,41.54,45Z"/><path class="cls-8" d="M60.05,39a15.15,15.15,0,0,1,3,5.95,16.11,16.11,0,0,1-1.67,11.48c1.46-1.1,8.89-6.88,8.56-15-.17-4.1-2.32-9.5-4.91-9.5C63.13,31.92,61.2,34.94,60.05,39Z"/></g><g class="cls-11"><path class="cls-9" d="M15.53,31C20.91,45.75,47.76,49.3,59,39.91c1-.83,5-4.12,5.25-8.88.35-7.27-8.79-12.14-9.85-12.7A22.24,22.24,0,0,0,41.31,16a12.76,12.76,0,0,1-3-6c-.84-4.4,1.44-6.77.41-8-2-2.42-15.31,1.33-21,11.82C16.85,15.32,12.71,23.27,15.53,31Z"/><path class="cls-8" d="M40.8,15.31A37,37,0,0,0,46.9,21c4.52,3.31,7,3.45,9.24,5.69,2,2,4,5.73,3.36,13.48,1.63-1.35,4.93-4.52,5.35-9.11.71-7.51-6.69-13.77-13.15-15.73A19.46,19.46,0,0,0,40.8,15.31Z"/><path class="cls-8" d="M40.78.33C31.07,8.68,29.61,14,30.48,17.45c1.57,6.24,10.87,6.61,13.64,15,1.41,4.29,1,10.39-2.09,12.52-6.17,4.21-27.29-4.2-28.95-19.76C11.86,13.76,21.73,3.11,31.87.61A21.84,21.84,0,0,1,40.78.33Z"/></g><path class="cls-12" d="M54.57,22.34a.9.9,0,0,0-.07-.27l-1.28-2.92a2.23,2.23,0,0,0-2.57-.79c-1.09.28-1.74,1.08-1.43,1.8,0,0-.43.86-.26,1.26l1.27,2.91a1.52,1.52,0,0,0,1,.78,3,3,0,0,0,1.58,0c1-.24,1.58-.88,1.51-1.53A7,7,0,0,0,54.57,22.34Z"/><path class="cls-13" d="M28.7,14.06a2.08,2.08,0,0,0-2.91.49l-2.72,3.82a2.08,2.08,0,0,0,.49,2.91,2,2,0,0,0,1.21.39,2.09,2.09,0,0,0,1.7-.88L29.19,17A2.09,2.09,0,0,0,28.7,14.06Z"/><path class="cls-14" d="M47.2,34.09l-3.86-2.66A2.08,2.08,0,0,0,41,34.86l3.86,2.67a2.08,2.08,0,0,0,2.9-.53,2,2,0,0,0,.33-1.57A2.06,2.06,0,0,0,47.2,34.09Z"/><path class="cls-9" d="M17.48,55.14l-3.85-2.66a2.08,2.08,0,0,0-3.24,2.09,2,2,0,0,0,.86,1.34l3.86,2.67a2.09,2.09,0,1,0,2.37-3.44Z"/><path class="cls-14" d="M32.36,45.27a2.09,2.09,0,0,0-2.86-.77l-4.05,2.35a2.08,2.08,0,0,0,1,3.89,2,2,0,0,0,1-.28l4.06-2.34A2.09,2.09,0,0,0,32.36,45.27Z"/><path class="cls-9" d="M24.81,33.63,23.48,30a1.74,1.74,0,1,0-3.27,1.19l1.34,3.66A1.73,1.73,0,0,0,23.18,36a1.7,1.7,0,0,0,.59-.1A1.75,1.75,0,0,0,24.81,33.63Z"/><path class="cls-12" d="M57.49,50l-1.6-4.4A2.09,2.09,0,1,0,52,47l1.6,4.4A2.09,2.09,0,1,0,57.49,50Z"/><path class="cls-13" d="M48,64.93a2.1,2.1,0,0,0-2.86-.76l-4.06,2.34a2.09,2.09,0,0,0,1,3.9,2.13,2.13,0,0,0,1-.28l4.06-2.35A2.09,2.09,0,0,0,48,64.93Z"/></g></g></svg>