<svg xmlns="http://www.w3.org/2000/svg" xmlns:xlink="http://www.w3.org/1999/xlink" viewBox="0 0 37.64 144"><defs><style>.cls-1{fill:none;}.cls-2{fill:#f794bd;}.cls-3{fill:#fce4be;}.cls-4{clip-path:url(#clip-path);}.cls-5{fill:#6cd5ff;}.cls-6{fill:#6950dd;}.cls-7{clip-path:url(#clip-path-2);}.cls-8{fill:#5af9c4;}.cls-9{clip-path:url(#clip-path-3);}.cls-10{fill:#fca1ff;}.cls-11{fill:#ff73e1;}.cls-12{clip-path:url(#clip-path-4);}.cls-13{fill:#ffc1ae;}.cls-14{fill:#fff080;}.cls-15{clip-path:url(#clip-path-5);}</style><clipPath id="clip-path"><path class="cls-1" d="M0,18v90.13c0,2.78,1.84,5.55,5.51,7.67,7.34,4.24,19.24,4.24,26.58,0,3.67-2.12,5.5-4.89,5.5-7.67h0V18Z"/></clipPath><clipPath id="clip-path-2"><path class="cls-1" d="M0,63.3V85.8c0,2.77,1.84,5.55,5.51,7.67,7.34,4.24,19.24,4.24,26.58,0,3.67-2.12,5.5-4.89,5.5-7.67h0V63.3Z"/></clipPath><clipPath id="clip-path-3"><path class="cls-1" d="M0,41.32V63.47C0,66.24,1.84,69,5.51,71.14c7.34,4.24,19.24,4.24,26.58,0,3.67-2.12,5.5-4.9,5.5-7.67h0V41.32Z"/></clipPath><clipPath id="clip-path-4"><path class="cls-1" d="M0,15.21V41.14c0,2.77,1.84,5.55,5.51,7.67,7.34,4.24,19.24,4.24,26.58,0,3.67-2.12,5.5-4.9,5.5-7.67h0V15.21Z"/></clipPath><clipPath id="clip-path-5"><path class="cls-1" d="M37.6,18.8A18.8,18.8,0,0,0,0,18.8s0,.05,0,.08c0,2.75,1.86,5.49,5.5,7.59,7.34,4.24,19.24,4.24,26.58,0,3.63-2.1,5.46-4.84,5.5-7.59C37.59,18.85,37.6,18.83,37.6,18.8Z"/></clipPath></defs><title>popsicle</title><g id="Calque_2" data-name="Calque 2"><g id="Calque_1-2" data-name="Calque 1"><path class="cls-2" d="M15.71,96.45l-4.19,2.39,4.19,24.1V132a12,12,0,0,0,2.88,7.45l.73,4.22,4.2-2.39v0c1-.57,1.65-1.89,1.65-3.79V101.9Z"/><path class="cls-3" d="M16.24,143.43h0c-2.61-1.5-4.72-5.54-4.72-9V98.84L21,104.3v35.56C21,143.34,18.85,144.94,16.24,143.43Z"/><g class="cls-4"><path class="cls-5" d="M0,18v90.13c0,2.78,1.84,5.55,5.51,7.67,7.34,4.24,19.24,4.24,26.58,0,3.67-2.12,5.5-4.89,5.5-7.67h0V18Z"/><rect class="cls-6" x="23.06" y="85.13" width="14.57" height="34.92"/><g class="cls-7"><path class="cls-8" d="M0,63.3V85.8c0,2.77,1.84,5.55,5.51,7.67,7.34,4.24,19.24,4.24,26.58,0,3.67-2.12,5.5-4.89,5.5-7.67h0V63.3Z"/><rect class="cls-5" x="23.06" y="61.85" width="14.56" height="35.13"/></g><g class="cls-9"><path class="cls-10" d="M0,41.32V63.47C0,66.24,1.84,69,5.51,71.14c7.34,4.24,19.24,4.24,26.58,0,3.67-2.12,5.5-4.9,5.5-7.67h0V41.32Z"/><rect class="cls-11" x="23.06" y="40.02" width="14.56" height="34.48"/></g><g class="cls-12"><path class="cls-13" d="M0,15.21V41.14c0,2.77,1.84,5.55,5.51,7.67,7.34,4.24,19.24,4.24,26.58,0,3.67-2.12,5.5-4.9,5.5-7.67h0V15.21Z"/><rect class="cls-2" x="23.06" y="14.58" width="14.56" height="37.59"/></g><path class="cls-14" d="M0,17.9v.91c0,2.77,1.84,5.55,5.51,7.67,7.34,4.24,19.24,4.24,26.58,0,3.67-2.12,5.5-4.9,5.5-7.67h0V17.9Z"/></g><g class="cls-15"><path class="cls-14" d="M37.6,18.8A18.8,18.8,0,0,0,0,18.8s0,.05,0,.08c0,2.75,1.86,5.49,5.5,7.59,7.34,4.24,19.24,4.24,26.58,0,3.63-2.1,5.46-4.84,5.5-7.59C37.59,18.85,37.6,18.83,37.6,18.8Z"/><path class="cls-10" d="M23.06,30.15H37.63L37.49.88A25.83,25.83,0,0,0,31.63,5.1C22.52,13.89,22.87,26.8,23.06,30.15Z"/></g></g></g></svg>