<svg xmlns="http://www.w3.org/2000/svg" xmlns:xlink="http://www.w3.org/1999/xlink" viewBox="0 0 114.61 101.97"><defs><style>.cls-1{fill:none;}.cls-2{clip-path:url(#clip-path);}.cls-3{fill:#f794bd;}.cls-4{fill:#ffd5ab;}.cls-5{fill:#5af9c4;}.cls-6{fill:#b24672;}.cls-7{fill:#d65f95;}.cls-8{fill:#fff080;}.cls-9{clip-path:url(#clip-path-2);}.cls-10{fill:#f1b6ff;}.cls-11{fill:#ff73e1;}.cls-12{fill:#fca1ff;}.cls-13{clip-path:url(#clip-path-3);}.cls-14{clip-path:url(#clip-path-4);}</style><clipPath id="clip-path"><path class="cls-1" d="M30.61,32.29l-28,16.16A4.3,4.3,0,0,0,4.78,52.2l84,48.5h0a4.27,4.27,0,0,0,4.33,0l15-8.66a13,13,0,0,0,6.5-11.26Z"/></clipPath><clipPath id="clip-path-2"><path class="cls-1" d="M91.31,55.12c0-6.69-4.69-14.83-10.49-18.18-2.9-1.67-5.52-1.83-7.42-.73h0l-5.32,2.93,14.84,25.7,5.32-2.92h0C90.14,60.82,91.31,58.47,91.31,55.12Z"/></clipPath><clipPath id="clip-path-3"><path class="cls-1" d="M98.55,83.73c0-6.7-4.7-14.83-10.49-18.18-2.9-1.67-5.52-1.83-7.42-.74h0l-5.32,2.93L90.16,93.45l5.32-2.93h0C97.38,89.43,98.55,87.07,98.55,83.73Z"/></clipPath><clipPath id="clip-path-4"><path class="cls-1" d="M55.89,34.66c0-6.7-4.7-14.83-10.5-18.18-2.9-1.67-5.52-1.83-7.42-.74h0l-5.31,2.93L47.5,44.38l5.31-2.93h0C54.71,40.36,55.89,38,55.89,34.66Z"/></clipPath></defs><title>tacos</title><g id="Calque_2" data-name="Calque 2"><g id="Calque_1-2" data-name="Calque 1"><g class="cls-2"><path class="cls-3" d="M30.61,32.29l-28,16.16A4.3,4.3,0,0,0,4.78,52.2l84,48.5h0a4.27,4.27,0,0,0,4.33,0l15-8.66a13,13,0,0,0,6.5-11.26Z"/><path class="cls-4" d="M5,45.66,0,48l2.92,6.54L90.48,102l2-.69A5.18,5.18,0,0,1,88.05,100a4.9,4.9,0,0,1-1.39-3.37Z"/></g><path class="cls-3" d="M114.61,80.78l-84-48.49h0A28.31,28.31,0,0,1,73.08,7.77h0a83.07,83.07,0,0,1,41.53,71.94Z"/><path class="cls-5" d="M104.42,65.15c5.43-7.21,8.73-18.92,4.18-23.94-4.08-4.49-10.9.29-16.15-4.18-7.82-6.66-.16-24.37-5.29-26.73-3.77-1.72-8.58,7.47-14.76,6.13C65.07,14.84,64.55.27,59,0c-4.45-.21-5.56,9.21-12.53,10.58-6,1.19-9.74-4.94-13.64-3.34-5.57,2.29-4.25,17.29-4.18,18.1C30.84,47.8,50.76,77.92,76.86,78c.93,0,12.7-.16,22.1-7.33A27.79,27.79,0,0,0,104.42,65.15Z"/><ellipse class="cls-6" cx="53.42" cy="30.56" rx="6.42" ry="9.81" transform="translate(0.24 61.54) rotate(-60)"/><path class="cls-7" d="M79.77,37.14c1.77-3.08-.59-7.76-5.29-10.47s-9.93-2.42-11.7.65.59,7.76,5.28,10.47S78,40.21,79.77,37.14Z"/><path class="cls-8" d="M89,58.88a11.18,11.18,0,0,1-5.53-1.67C77,53.51,72,44.82,72,37.42c0-3.86,1.38-6.78,3.89-8.23S81.65,28,85,29.94c6.4,3.7,11.42,12.39,11.42,19.79,0,3.86-1.38,6.78-3.89,8.23A7,7,0,0,1,89,58.88ZM79.47,31.35a4,4,0,0,0-2,.51c-1.51.87-2.35,2.85-2.35,5.56,0,6.3,4.44,14,9.89,17.13,2.35,1.36,4.48,1.62,6,.74s2.35-2.85,2.35-5.56c0-6.3-4.44-14-9.89-17.13A8.2,8.2,0,0,0,79.47,31.35Z"/><path class="cls-8" d="M63.79,50.11a11.25,11.25,0,0,1-5.54-1.67c-6.4-3.7-11.42-12.39-11.42-19.79,0-3.86,1.38-6.78,3.89-8.23s5.73-1.18,9.07.75C66.2,24.87,71.22,33.56,71.22,41c0,3.86-1.38,6.78-3.89,8.23A7.08,7.08,0,0,1,63.79,50.11ZM54.27,22.58a4,4,0,0,0-2,.51c-1.52.87-2.35,2.85-2.35,5.56,0,6.3,4.43,14,9.88,17.13,2.35,1.35,4.48,1.62,6,.74s2.35-2.85,2.35-5.56c0-6.3-4.43-14-9.89-17.13A8.17,8.17,0,0,0,54.27,22.58Z"/><path class="cls-6" d="M97.41,66c1.78-3.07-.59-7.76-5.28-10.47s-9.94-2.41-11.71.66S81,63.9,85.71,66.61,95.64,69,97.41,66Z"/><g class="cls-9"><path class="cls-10" d="M91.31,55.12c0-6.69-4.69-14.83-10.49-18.18-2.9-1.67-5.52-1.83-7.42-.73h0l-5.32,2.93,14.84,25.7,5.32-2.92h0C90.14,60.82,91.31,58.47,91.31,55.12Z"/><polygon class="cls-11" points="91.7 60.5 77.99 68.28 77.99 42.52 91.7 34.74 91.7 60.5"/></g><path class="cls-12" d="M86,58.05c0-6.69-4.7-14.83-10.5-18.18S65,39.24,65,45.93s4.7,14.83,10.49,18.18S86,64.74,86,58.05Z"/><path class="cls-7" d="M84.84,63.85c1.75-3-.58-7.63-5.19-10.29s-9.76-2.37-11.51.65.59,7.62,5.2,10.28S83.1,66.87,84.84,63.85Z"/><ellipse class="cls-6" cx="98.31" cy="81.09" rx="6.42" ry="9.81" transform="translate(-21.07 125.69) rotate(-60)"/><ellipse class="cls-7" cx="98" cy="71.97" rx="6.31" ry="9.64" transform="translate(-13.33 120.86) rotate(-60)"/><path class="cls-7" d="M72.61,39.86c1.19-3.28-1.91-7.4-6.91-9.21s-10-.63-11.22,2.65,1.91,7.4,6.92,9.21S71.43,43.14,72.61,39.86Z"/><g class="cls-13"><path class="cls-10" d="M98.55,83.73c0-6.7-4.7-14.83-10.49-18.18-2.9-1.67-5.52-1.83-7.42-.74h0l-5.32,2.93L90.16,93.45l5.32-2.93h0C97.38,89.43,98.55,87.07,98.55,83.73Z"/><polygon class="cls-11" points="98.94 89.11 85.23 96.89 85.23 71.12 98.94 63.35 98.94 89.11"/></g><ellipse class="cls-12" cx="82.74" cy="80.6" rx="8.57" ry="14.84" transform="translate(-29.21 52.17) rotate(-30)"/><g class="cls-14"><path class="cls-10" d="M55.89,34.66c0-6.7-4.7-14.83-10.5-18.18-2.9-1.67-5.52-1.83-7.42-.74h0l-5.31,2.93L47.5,44.38l5.31-2.93h0C54.71,40.36,55.89,38,55.89,34.66Z"/><polygon class="cls-11" points="56.27 40.04 42.57 47.82 42.57 22.05 56.27 14.28 56.27 40.04"/></g><ellipse class="cls-12" cx="40.08" cy="31.53" rx="8.57" ry="14.84" transform="translate(-10.39 24.26) rotate(-30)"/><path class="cls-5" d="M82.06,81.44c6.21-3,11.13-10.55,9.4-15.24C89,59.37,73.51,61.74,71.62,55.13c-1.42-5,6.6-9.07,5-13.36S66.68,40,53.87,35.5c-7.37-2.6-6.82-4.21-20-10.44C18,17.59,15.18,19,14.2,19.63c-5,3.38-2.36,15.12-2.09,16.29,3.7,15.88,18.42,24.76,35.71,34.87C63.61,80,73.4,85.56,82.06,81.44Z"/><path class="cls-4" d="M86.61,97l-84-48.5h0A28.32,28.32,0,0,1,45.08,23.93h0A83.07,83.07,0,0,1,86.61,95.87Z"/></g></g></svg>